<svg width="123" height="123" viewBox="0 0 123 123" fill="none" xmlns="http://www.w3.org/2000/svg">
<g clip-path="url(#clip0_164_67)">
<path fill-rule="evenodd" clip-rule="evenodd" d="M21 78.93L30.4 73.24C32.21 76.46 33.86 79.18 37.82 79.18C41.61 79.18 44.01 77.7 44.01 71.92V32.65H55.56V72.08C55.56 84.04 48.55 89.48 38.32 89.48C29.08 89.48 23.72 84.7 21 78.93ZM61.83 77.69L71.23 72.25C73.71 76.29 76.92 79.26 82.61 79.26C87.39 79.26 90.45 76.87 90.45 73.57C90.45 69.61 87.32 68.21 82.04 65.9L79.15 64.66C70.82 61.11 65.29 56.66 65.29 47.26C65.29 38.6 71.89 32 82.2 32C89.54 32 94.82 34.56 98.61 41.24L89.62 47.01C87.64 43.46 85.5 42.06 82.2 42.06C78.82 42.06 76.67 44.2 76.67 47.01C76.67 50.47 78.81 51.88 83.76 54.02L86.65 55.26C96.47 59.47 101.99 63.76 101.99 73.41C101.99 83.8 93.82 89.49 82.85 89.49C72.14 89.49 65.21 84.37 61.83 77.69Z" fill="#F6F0F0"/>
</g>
<defs>
<clipPath id="clip0_164_67">
<rect width="122.88" height="122.88" fill="white"/>
</clipPath>
</defs>
</svg>
