<svg width="52" height="52" viewBox="0 0 52 52" fill="none" xmlns="http://www.w3.org/2000/svg">
<path d="M52 9.75003V42.2501C52 44.9359 51.0464 47.2323 49.1393 49.1395C47.2322 51.0466 44.9358 52.0001 42.25 52.0001H34.6667C34.3056 52.0001 34.0291 51.9889 33.8372 51.9663C33.6454 51.9437 33.4253 51.8873 33.1771 51.797C32.9288 51.7067 32.7483 51.5431 32.6354 51.3061C32.5226 51.0692 32.4661 50.7588 32.4661 50.3751V42.284C32.4661 40.0947 31.8793 38.4923 30.7057 37.4767C31.9922 37.3412 33.1489 37.1381 34.1758 36.8673C35.2027 36.5965 36.2635 36.1564 37.3581 35.547C38.4527 34.9376 39.3668 34.1872 40.1003 33.2957C40.8338 32.4042 41.4319 31.2193 41.8945 29.741C42.3572 28.2627 42.5885 26.5643 42.5885 24.6459C42.5885 21.915 41.697 19.5903 39.9141 17.6719C40.7491 15.6181 40.6589 13.316 39.6432 10.7657C39.0113 10.5625 38.0972 10.6867 36.901 11.1381C35.7049 11.5894 34.6667 12.086 33.7865 12.6276L32.5 13.4401C30.401 12.8533 28.2344 12.5599 26 12.5599C23.7656 12.5599 21.599 12.8533 19.5 13.4401C19.1389 13.1919 18.6593 12.8872 18.0612 12.5261C17.4631 12.165 16.5208 11.7305 15.2344 11.2227C13.9479 10.7149 12.9774 10.5625 12.3229 10.7657C11.3299 13.316 11.2509 15.6181 12.0859 17.6719C10.303 19.5903 9.41146 21.915 9.41146 24.6459C9.41146 26.5643 9.6428 28.257 10.1055 29.724C10.5681 31.1911 11.1606 32.376 11.8828 33.2787C12.605 34.1815 13.5135 34.9376 14.6081 35.547C15.7027 36.1564 16.7635 36.5965 17.7904 36.8673C18.8173 37.1381 19.974 37.3412 21.2604 37.4767C20.3576 38.2892 19.8047 39.4515 19.6016 40.9637C19.1276 41.1893 18.6198 41.3586 18.0781 41.4715C17.5365 41.5843 16.8932 41.6407 16.1484 41.6407C15.4036 41.6407 14.6645 41.3981 13.931 40.9129C13.1975 40.4276 12.5712 39.7223 12.0521 38.797C11.6233 38.0748 11.076 37.488 10.4102 37.0366C9.74436 36.5852 9.18576 36.3143 8.73438 36.2241L8.05729 36.1225C7.58333 36.1225 7.25608 36.1733 7.07552 36.2748C6.89497 36.3764 6.83854 36.5062 6.90625 36.6642C6.97396 36.8222 7.07552 36.9801 7.21094 37.1381C7.34635 37.2961 7.49306 37.4315 7.65104 37.5444L7.88802 37.7136C8.38455 37.9393 8.87543 38.3682 9.36068 39.0001C9.84592 39.6321 10.2014 40.2076 10.4271 40.7267L10.7656 41.5053C11.059 42.363 11.5556 43.057 12.2552 43.5874C12.9549 44.1177 13.7109 44.4563 14.5234 44.603C15.3359 44.7497 16.1202 44.8287 16.8763 44.84C17.6324 44.8513 18.2587 44.8118 18.7552 44.7215L19.5339 44.5861C19.5339 45.4437 19.5395 46.606 19.5508 48.073C19.5621 49.5401 19.5677 50.3074 19.5677 50.3751C19.5677 50.8717 19.4436 51.2497 19.1953 51.5093C18.947 51.7688 18.6988 51.9155 18.4505 51.9494C18.2023 51.9832 17.8299 52.0001 17.3333 52.0001H9.75C7.06424 52.0001 4.7678 51.0466 2.86068 49.1395C0.953559 47.2323 0 44.9359 0 42.2501V9.75003C0 7.06426 0.953559 4.76781 2.86068 2.86068C4.7678 0.953562 7.06424 0 9.75 0H42.25C44.9358 0 47.2322 0.953562 49.1393 2.86068C51.0464 4.76781 52 7.06426 52 9.75003Z" fill="white"/>
</svg>