<svg width="52" height="53" viewBox="0 0 52 53" fill="none" xmlns="http://www.w3.org/2000/svg">
<path d="M3.95357 0.830566C3.64889 0.911824 3.15125 1.10481 2.83641 1.25717C2.11533 1.61268 0.93723 2.79092 0.581769 3.51209C-0.0479061 4.7919 -0.0072819 3.23784 -0.0072819 26.6707C-0.0072819 50.1035 -0.0479061 48.5494 0.581769 49.8293C0.93723 50.5504 2.11533 51.7287 2.83641 52.0842C4.11607 52.7139 2.5622 52.6733 25.9922 52.6733C49.4222 52.6733 47.8683 52.7139 49.148 52.0842C49.869 51.7287 51.0471 50.5504 51.4026 49.8293C52.0323 48.5494 51.9917 50.1035 51.9917 26.6707C51.9917 3.23784 52.0323 4.7919 51.4026 3.51209C51.0471 2.79092 49.869 1.61268 49.148 1.25717C47.8683 0.62742 49.4323 0.668049 25.9414 0.678207C7.41679 0.678207 4.44106 0.698521 3.95357 0.830566ZM13.1245 7.94066C15.4807 8.71261 16.8213 11.1504 16.1916 13.5678C15.5416 16.0868 12.83 17.5901 10.3417 16.8181C7.54881 15.9649 6.24884 12.8974 7.54881 10.2565C8.15818 9.02749 9.48862 8.02192 10.8292 7.77814C11.4589 7.66641 12.505 7.73751 13.1245 7.94066ZM37.4685 21.2873C39.9974 22.0186 42.0895 23.7962 43.2575 26.2034C44.1715 28.0825 44.1106 27.3817 44.141 36.6451L44.1817 44.8522H40.2614H36.3514V37.6608C36.3514 31.2211 36.331 30.4086 36.1787 29.9616C35.7014 28.5498 34.5436 27.5442 33.0811 27.2801C31.6593 27.016 30.0241 27.7778 29.2117 29.0779C28.6226 30.0226 28.6328 29.8296 28.6328 37.6608V44.8522H24.7227H20.8126V33.1713V21.4905H24.7227H28.6328V22.9531V24.4158L29.5773 23.4813C30.7554 22.2929 32.0757 21.5311 33.66 21.1248C34.4319 20.9217 36.5138 21.0131 37.4685 21.2873ZM15.633 33.1713V44.8522H11.7229H7.81287V33.1713V21.4905H11.7229H15.633V33.1713Z" fill="white"/>
</svg>
