<svg width="1037" height="738" viewBox="0 0 1037 738" fill="none" xmlns="http://www.w3.org/2000/svg">
<path d="M851.437 479.01L851.678 479.428L852.104 479.202L953.706 425.313C979.046 463.147 1001.16 502.194 1013.45 538.444C1025.8 574.825 1028.23 608.296 1014.25 634.897C1004.99 652.465 988.484 667.092 967.146 679.25C945.811 691.407 919.677 701.076 891.207 708.745C834.267 724.082 768.056 731.397 712.381 734.631L712.379 734.631C602.104 741.317 533.189 731.926 470.891 723.437L469.477 723.245L469.475 723.244C467.341 722.963 465.214 722.683 463.092 722.404C402.637 714.451 346.894 707.117 270.836 690.611L270.835 690.611C231.317 682.088 186.412 671.095 144.984 654.119C103.554 637.141 65.6424 614.195 40.0727 581.791C-9.05404 519.193 -12.4549 421.178 29.9233 352.629C67.558 383.566 130.738 424.618 164.803 446.751C175.469 453.682 183.281 458.758 186.56 461.088L186.561 461.088C192.937 465.606 237.132 495.481 290.015 530.854C289.536 534.739 288.896 542.033 289.496 550.066C290.111 558.305 292.034 567.382 296.828 574.344L297.24 574.06L296.828 574.344C298.303 576.485 301 579.27 304.58 582.493C308.168 585.723 312.671 589.418 317.783 593.382C328.007 601.31 340.686 610.327 353.396 618.877C366.106 627.428 378.853 635.516 389.217 641.584C394.399 644.617 398.99 647.149 402.685 648.983C406.356 650.804 409.207 651.969 410.877 652.215C413.553 652.607 416.639 652.148 419.853 651.112C423.072 650.074 426.451 648.449 429.73 646.476C435.848 642.795 441.661 637.874 445.466 633.222C457.582 640.972 468.009 647.52 476.042 652.389C484.14 657.297 489.847 660.526 492.394 661.544L492.494 661.584L492.602 661.58C581.115 657.675 635.172 608.109 659.333 570.554C677.572 560.253 709.363 541.452 736.612 525.216C750.264 517.081 762.778 509.589 771.879 504.131C776.429 501.402 780.126 499.181 782.686 497.643L784.269 496.691L785.637 495.869L786.405 495.406L786.602 495.288L786.651 495.258L786.663 495.251L786.667 495.249C786.667 495.249 786.668 495.248 786.41 494.82L786.668 495.248L787.088 494.995L786.843 494.57L693.923 333.57L693.67 333.132L693.235 333.39C689.93 335.345 678.571 341.178 666.421 346.32C660.348 348.89 654.089 351.282 648.548 352.93C642.985 354.585 638.221 355.465 635.102 355.074C631.915 354.675 625.892 353.069 618.316 350.965C616.977 350.594 615.591 350.207 614.166 349.809C607.545 347.96 600.068 345.873 592.489 343.957C583.278 341.628 573.899 339.549 565.703 338.457C557.533 337.369 550.444 337.247 545.869 338.91L545.867 338.911C541.663 340.461 533.602 343.749 523.882 347.857C508.251 335.977 493.874 328.123 482.346 326.813L482.346 326.813C481.628 326.732 480.492 326.819 479.037 327.027C477.567 327.237 475.725 327.578 473.571 328.032C469.262 328.938 463.679 330.297 457.28 331.957C444.479 335.279 428.386 339.818 412.62 344.391C396.854 348.965 381.413 353.575 369.913 357.042C364.163 358.775 359.398 360.223 356.07 361.237C354.407 361.744 353.102 362.143 352.214 362.415C351.77 362.551 351.43 362.655 351.2 362.725L351.114 362.752L188.622 225.287C212.129 210.329 235.766 194.376 258.097 176.026L258.098 176.026C281.044 157.118 302.641 135.634 323.38 114.35V205.12V205.62H323.88H496.234L513.378 241.655L513.83 242.604L514.281 241.655L531.426 205.62H575.05H575.55V205.12V105.42V104.92H575.05H332.583C333.303 104.179 334.022 103.439 334.74 102.7C357.696 79.076 379.799 56.3293 401.925 38.3165C425.009 19.5244 448.068 5.92687 472.083 1.85302C507.893 -4.20488 545.901 10.6669 583.976 35.6406C622.041 60.6078 660.083 95.6104 695.945 129.673L695.946 129.673C736.984 168.49 775.069 206.14 813.379 248.314C784.596 265.503 759.267 280.517 742.909 289.997L742.477 290.248L742.727 290.68L851.437 479.01Z" fill="#221439" stroke="white"/>
<path d="M445.33 632.51C469.88 648.22 487.57 659.07 492.55 661.03C580.95 657.17 634.89 607.59 658.95 570.13" stroke="white" stroke-width="2.5" stroke-linecap="round" stroke-linejoin="round"/>
<path d="M7.62988 76.42C7.62988 76.42 51.8399 111.14 84.0899 137.51L351 363.31C351 363.31 471.93 326.14 482.29 327.31C493.73 328.61 508.1 336.46 523.81 348.43" stroke="white" stroke-width="2.5" stroke-linecap="round" stroke-linejoin="round"/>
<path d="M290.52 530.56C237.52 495.11 193.2 465.15 186.82 460.63C170.41 449 41.1399 369 7.62988 331.37" stroke="white" stroke-width="2.5" stroke-linecap="round" stroke-linejoin="round"/>
<path d="M742.977 291.113L878.437 525.737L823.233 557.607L687.773 322.983L742.977 291.113Z" stroke="white"/>
<path d="M851.39 512.57C851.39 522.125 843.644 529.87 834.09 529.87C824.535 529.87 816.79 522.125 816.79 512.57C816.79 503.016 824.535 495.27 834.09 495.27C843.644 495.27 851.39 503.016 851.39 512.57Z" fill="white" stroke="white"/>
<path d="M693.46 333.82C686.8 337.76 647.96 357.19 635.01 355.57C622.06 353.95 563.79 332.91 546.01 339.38C528.23 345.85 444.01 383.08 444.01 383.08C444.01 383.08 367.93 464.01 366.31 465.63C364.69 467.25 366.22 479.84 368.54 481.85C370.86 483.86 397 491.75 401.33 489.12C405.66 486.49 464.13 441.63 474.65 441.63C485.17 441.63 585.53 513.76 645.31 577.43C659.1 571.43 786.37 494.77 786.37 494.77L693.46 333.82Z" stroke="white" stroke-width="2.5" stroke-linecap="round" stroke-linejoin="round"/>
<path d="M290.9 527.93C290.9 527.93 285.69 557.29 297.21 574.01C308.73 590.73 398.28 649.81 410.92 651.67C423.56 653.53 446.59 635.67 449.19 625.67C451.79 615.67 435.07 578.85 430.24 573.67C425.41 568.49 356.29 520.13 348.86 519C341.43 517.87 302.42 520.87 290.9 527.93Z" stroke="white" stroke-width="2.5" stroke-linecap="round" stroke-linejoin="round"/>
<path d="M299.64 577.43L349.13 539.92" stroke="white" stroke-width="2.5" stroke-linecap="round" stroke-linejoin="round"/>
<path d="M338.48 608.87L387.98 571.36" stroke="white" stroke-width="2.5" stroke-linecap="round" stroke-linejoin="round"/>
<path d="M376.37 633.31L413.98 604.81" stroke="white" stroke-width="2.5" stroke-linecap="round" stroke-linejoin="round"/>
<path d="M617.15 615.61L476.34 501.17" stroke="white" stroke-width="2.5" stroke-linecap="round" stroke-linejoin="round"/>
<path d="M564.78 644.75L475.47 572.17" stroke="white" stroke-width="2.5" stroke-linecap="round" stroke-linejoin="round"/>
<path d="M520.13 660.21L446.64 600.49" stroke="white" stroke-width="2.5" stroke-linecap="round" stroke-linejoin="round"/>
<path d="M179.01 315.872L231.887 361.082C241.643 369.423 242.79 384.093 234.449 393.848L182.208 454.95C173.867 464.705 159.197 465.852 149.441 457.511L96.5636 412.302C86.8081 403.961 85.6612 389.291 94.0021 379.535L146.243 318.434C154.584 308.678 169.254 307.531 179.01 315.872Z" fill="white" stroke="white"/>
<path d="M231.384 359.165L182.994 317.785L231.985 260.475L280.385 301.855L231.384 359.165Z" stroke="white"/>
<path d="M226.49 674.73C237.558 674.73 246.53 665.758 246.53 654.69C246.53 643.622 237.558 634.65 226.49 634.65C215.422 634.65 206.45 643.622 206.45 654.69C206.45 665.758 215.422 674.73 226.49 674.73Z" stroke="white" stroke-width="8.09" stroke-miterlimit="10"/>
<path d="M737.68 639.43C745.721 639.43 752.24 632.911 752.24 624.87C752.24 616.829 745.721 610.31 737.68 610.31C729.638 610.31 723.12 616.829 723.12 624.87C723.12 632.911 729.638 639.43 737.68 639.43Z" stroke="white" stroke-width="8.09" stroke-miterlimit="10"/>
<path d="M638.51 300.94C646.551 300.94 653.07 294.421 653.07 286.38C653.07 278.339 646.551 271.82 638.51 271.82C630.468 271.82 623.95 278.339 623.95 286.38C623.95 294.421 630.468 300.94 638.51 300.94Z" stroke="white" stroke-width="8.09" stroke-miterlimit="10"/>
<path d="M575.05 105.42H323.88V205.12H496.55L513.83 241.44L531.11 205.12H575.05V105.42Z" stroke="white" stroke-width="2.5" stroke-linecap="round" stroke-linejoin="round"/>
<path d="M357.98 130.8H540.94" stroke="white" stroke-width="2.5" stroke-linecap="round" stroke-linejoin="round"/>
<path d="M357.98 155.27H540.94" stroke="white" stroke-width="2.5" stroke-linecap="round" stroke-linejoin="round"/>
<path d="M357.98 179.73H540.94" stroke="white" stroke-width="2.5" stroke-linecap="round" stroke-linejoin="round"/>
<path d="M1035 115.61L1016.86 126.54C1016.86 126.54 808.48 252.59 743.16 290.43L851.9 478.76L1035 381.6" stroke="white" stroke-width="2.5" stroke-linecap="round" stroke-linejoin="round"/>
</svg>